<?xml version="1.0" encoding="iso-8859-1"?>
<!-- Uploaded to: SVG Repo, www.svgrepo.com, Generator: SVG Repo Mixer Tools -->
<svg fill="#000000" height="800px" width="800px" version="1.1" id="Layer_1" xmlns="http://www.w3.org/2000/svg" xmlns:xlink="http://www.w3.org/1999/xlink" 
	 viewBox="0 0 512 512" xml:space="preserve">
<g>
	<g>
		<g>
			<path d="M508.524,214.952c-1.985-2.858-4.646-5.066-7.716-6.499c-2.448-26.549-18.775-50.087-43.113-61.581
				c-14.791-16.468-36.231-26.847-60.057-26.847H201.832v-15.417c0.004-0.111,0.006-0.223,0.006-0.321
				c0-19.83-16.133-35.965-35.963-35.965h-49.445c-11.311,0-22.214,3.326-31.551,9.624c-0.092,0.058-0.184,0.117-0.275,0.179
				l-54.856,37.414c-0.117,0.077-0.233,0.158-0.351,0.241c-0.003,0.002-0.009,0.006-0.015,0.011C10.983,128.345,0,149.109,0,171.358
				c0,37.075,30.162,67.237,67.235,67.237h33.338v5.511c0,16.986,5.262,32.761,14.225,45.803l11.981,146.394
				c0.341,4.167,3.822,7.375,8.002,7.375h38.263c4.18,0,7.661-3.207,8.002-7.375l1.434-17.525l1.435,17.525
				c0.341,4.167,3.822,7.375,8.002,7.375h38.262c4.18,0,7.661-3.207,8.002-7.374l9.095-111.119h41.231
				c3.85,8.11,9.127,15.331,15.441,21.423v7.683c0,4.435,3.595,8.029,8.029,8.029c3.123,0,5.823-1.787,7.15-4.39
				c2.549,1.441,5.183,2.733,7.891,3.867v4.55c0,4.435,3.595,8.029,8.029,8.029c4.389,0,7.951-3.523,8.022-7.896
				c3.387,0.582,6.834,0.93,10.322,1.028v1.175c0,1.94,0.687,3.719,1.832,5.106l-0.891,61.745c-0.031,2.15,0.801,4.221,2.31,5.752
				c1.508,1.532,3.568,2.393,5.718,2.393h40.35c2.2,0,4.216-0.893,5.679-2.356c1.505,1.507,3.547,2.356,5.678,2.356h40.349
				c3.94,0,7.299-2.859,7.926-6.751l15.93-98.739c0.068-0.423,0.103-0.85,0.103-1.278v-87.076c3.007,4.736,8.274,7.803,14.173,7.803
				c1,0,2.007-0.091,2.994-0.269c6.857-1.236,12.304-6.68,13.56-13.559l2.585-14.318
				C512.607,224.379,511.484,219.217,508.524,214.952z M460.146,184.158c1.409,5.3,2.17,10.862,2.17,16.601v42.185
				c-6.603,5.443-14.816,8.411-23.461,8.411c-20.391,0-36.981-16.588-36.981-36.977c0-20.392,16.59-36.982,36.981-36.982
				C446.587,177.397,453.898,179.733,460.146,184.158z M358.742,136.083h38.69c0.047,0.541,0.073,1.081,0.073,1.621
				c0,10.708-8.711,19.42-19.418,19.42c-10.708,0-19.42-8.712-19.42-19.42C358.667,137.162,358.695,136.621,358.742,136.083z
				 M248.147,136.084l83.533-0.001c1.736,4.799,2.617,9.836,2.617,15.034c0,24.474-19.91,44.385-44.383,44.385
				s-44.383-19.911-44.383-44.385C245.529,145.92,246.411,140.883,248.147,136.084z M54.915,221.029
				c-22.287-5.53-38.857-25.699-38.857-49.67c0-12.828,4.805-25.005,13.259-34.339c17.458,17.508,27.346,41.209,27.346,66.082
				C56.663,209.114,56.069,215.117,54.915,221.029z M98.823,222.537H70.967c1.157-6.418,1.752-12.92,1.752-19.435
				c0-28.63-11.178-55.923-30.956-76.32l51.637-35.219c0.088-0.056,0.174-0.111,0.261-0.171c6.719-4.587,14.592-7.013,22.771-7.013
				h49.445c10.917,0,19.809,8.835,19.905,19.731c-0.004,0.105-0.006,0.208-0.006,0.3v81.034c0,8.576-2.933,16.475-7.838,22.764
				C168.509,200.933,157.037,197,144.887,197C125.933,197.001,108.713,206.67,98.823,222.537z M164.988,218.752
				c-4.924,2.42-10.458,3.785-16.305,3.785h-29.006c6.846-6.015,15.714-9.479,25.21-9.479
				C152.12,213.059,159.014,215.04,164.988,218.752z M137.555,371.113c5.179,1.976,8.841,7.002,8.841,12.792
				c0,5-2.676,9.44-6.826,11.834L137.555,371.113z M165.646,427.619h-23.467l-1.241-15.161
				c12.732-3.661,21.515-15.189,21.515-28.555c0-15.083-11.428-27.79-26.269-29.542l-3.756-45.892
				c11.768,9.021,26.066,14.891,41.632,16.344L165.646,427.619z M192.936,349.674h7.397c4.249,0,7.706,3.458,7.706,7.707
				s-3.457,7.704-7.706,7.704h-6.135L192.936,349.674z M227.209,300.463c-15.415,0-27.956-12.541-27.956-27.954
				c0-15.414,12.541-27.955,27.956-27.955c15.414,0,27.954,12.541,27.954,27.955C255.163,287.922,242.623,300.463,227.209,300.463z
				 M361.419,334.587c-4.434,0-8.029,3.594-8.029,8.029v8.834c-3.503-0.124-6.952-0.576-10.314-1.32v-6.363
				c0-4.435-3.595-8.029-8.029-8.029c-4.434,0-8.029,3.594-8.029,8.029v0.203c-2.446-1.381-4.789-2.935-7.012-4.651v-2.048
				c0-4.435-3.595-8.029-8.029-8.029c-0.682,0-1.339,0.094-1.972,0.254c-1.103-1.382-2.137-2.824-3.112-4.31h64.359
				c2.761,3.002,5.75,5.765,8.918,8.287c-1.032,1.351-1.652,3.034-1.652,4.865v8.325c-2.929,1.274-5.964,2.298-9.07,3.076v-7.123
				C369.448,338.182,365.853,334.587,361.419,334.587z M407.161,357.637l-11.29,69.982h-25.367l0.892-61.843
				c2.605-0.579,5.168-1.301,7.688-2.154c1.178,2.973,4.071,5.077,7.461,5.077c4.434,0,8.029-3.594,8.029-8.029v-4.37
				c4.191-2.611,8.127-5.649,11.749-9.08c0.329,0.101,0.653,0.208,0.984,0.303L407.161,357.637z M462.316,332.181
				c-9.062-3.245-15.432-11.824-15.432-22.028c0-10.118,6.438-18.761,15.432-22.047V332.181z M462.317,271.455h-0.001
				c-17.953,3.721-31.49,19.658-31.49,38.699c0,18.502,12.406,33.858,29.534,38.232l-12.783,79.235h-25.366l1.244-86.263
				c0.056-3.881-2.672-7.246-6.481-7.995c-13.98-2.745-26.735-10.326-35.915-21.345c-1.525-1.831-3.785-2.889-6.168-2.889h-123.3
				c11.824-7.899,19.63-21.363,19.63-36.619c0-24.269-19.743-44.013-44.012-44.013c-24.269,0-44.014,19.743-44.014,44.013
				c0,24.268,19.744,44.012,44.014,44.012c1.588,0,3.154-0.089,4.698-0.254c-0.009,0.078-0.024,0.155-0.03,0.234l-9.095,111.119
				h-23.466l-3.803-46.477h4.822c13.103,0,23.763-10.66,23.763-23.762c0-13.103-10.66-23.764-23.763-23.764h-8.711l-1.4-17.113
				c-0.341-4.167-3.822-7.375-8.002-7.375h-0.31c-0.087-0.003-0.173-0.004-0.26-0.004c-35.851,0-65.019-29.167-65.019-65.017v-5.511
				h32.052c29.307,0,53.15-23.842,53.15-53.15v-49.365l22.573,0.002h6.972c-1.251,4.873-1.906,9.894-1.906,15.033
				c0,33.328,27.114,60.443,60.441,60.443c30.621,0,55.977-22.895,59.898-52.461c6.484,8.547,16.745,14.08,28.276,14.08
				c19.438,0,35.268-15.718,35.466-35.112c14.712,3.736,27.422,12.53,36.177,24.413c-3.563-0.75-7.207-1.141-10.875-1.141
				c-29.245,0-53.038,23.794-53.038,53.039c0,29.243,23.793,53.035,53.038,53.035c8.263,0,16.247-1.9,23.461-5.468V271.455z
				 M478.373,212.762V200.76c0-5.328-0.532-10.533-1.522-15.575c4.11,7.002,6.805,14.849,7.798,23.102
				C482.27,209.346,480.142,210.874,478.373,212.762z M495.883,226.639l-2.582,14.301c-0.033,0.184-0.203,0.551-0.61,0.624
				c-0.05,0.01-0.097,0.014-0.145,0.014c-0.301,0-0.661-0.218-0.734-0.623l-2.578-14.283c-0.073-0.412-0.074-0.855-0.005-1.235
				c0.291-1.61,1.683-2.78,3.311-2.78c0.202,0,0.409,0.019,0.62,0.057c1.197,0.216,1.876,0.968,2.173,1.397
				C495.632,224.54,496.1,225.441,495.883,226.639z"/>
			<path d="M352.418,225.85c-13.1,0-23.758,10.658-23.758,23.758c0,13.099,10.657,23.756,23.758,23.756
				c13.099,0,23.756-10.657,23.756-23.756C376.175,236.508,365.518,225.85,352.418,225.85z M352.418,257.307
				c-4.246,0-7.7-3.453-7.7-7.698c0-4.247,3.453-7.7,7.7-7.7c4.245,0,7.698,3.455,7.698,7.7
				C360.117,253.854,356.664,257.307,352.418,257.307z"/>
			<path d="M121.011,157.674c-11.27,0-20.439,9.168-20.439,20.438c0,11.271,9.169,20.441,20.439,20.441
				c11.27,0,20.439-9.169,20.439-20.441C141.45,166.843,132.281,157.674,121.011,157.674z M121.011,182.496
				c-2.416,0-4.382-1.966-4.382-4.384c0-2.415,1.965-4.38,4.382-4.38s4.382,1.965,4.382,4.38
				C125.393,180.529,123.427,182.496,121.011,182.496z"/>
			<path d="M162.871,165.892c6.314-1.204,11.781-4.795,15.393-10.112c3.612-5.316,4.938-11.721,3.733-18.037l-5.086-26.63
				c-1.478-7.646-7.368-13.531-15.013-14.997c-1.169-0.222-2.362-0.335-3.546-0.335c-9.049,0-16.85,6.455-18.55,15.351
				l-5.085,26.635c-0.556,2.961-0.555,6.073,0.004,9.001c2.164,11.329,12.096,19.553,23.617,19.553
				C159.853,166.322,161.378,166.178,162.871,165.892z M150.495,143.757c-0.185-0.974-0.184-2.02,0-3.003l5.081-26.61
				c0.255-1.336,1.424-2.305,2.777-2.305c0.179,0,0.362,0.017,0.533,0.05c1.306,0.249,2.076,1.322,2.257,2.255l5.082,26.61
				c0.4,2.1-0.04,4.232-1.242,6c-1.201,1.767-3.02,2.963-5.122,3.364c-0.504,0.097-1.015,0.146-1.519,0.146
				C154.515,150.265,151.216,147.528,150.495,143.757z"/>
			<circle cx="104.784" cy="117.889" r="7.636"/>
			<circle cx="29.849" cy="166.75" r="7.943"/>
		</g>
	</g>
</g>
</svg>